:FULLY-SPECIFIED
:FORCE-ALL-JOINTS-BE-3DOF
:DEGREES
340
root 8.30183 16.0015 -20.7963 11.5383 27.0971 5.55588
lfemur -11.1755 19.5849 -11.7634
ltibia 40.7213 0 0
lfoot 1.85492 24.9177 0
ltoes -31.2019 0 0
rfemur -47.7335 -12.969 5.94889
rtibia 55.8276 0 0
rfoot 4.17315 -20.0109 0
rtoes 9.63696 0 0
lowerback -0.183359 -1.9604 -2.16189
upperback 1.94812 -2.56879 -0.313051
thorax 2.18339 -1.31637 0.826767
lowerneck -5.13359 -9.2061 -0.487505
upperneck -2.92735 -12.2092 6.72746
head 0.422272 -6.07301 1.90576
lclavicle -3.05145e-14 1.18941e-14 0
lhumerus -48.2438 -36.9243 110.22
lradius 58.1017 0 0
lwrist 19.218 0 0
lhand 7.1398 12.634 0
lfingers 7.12502 0 0
lthumb 32.4048 39.7198 0
rclavicle -3.05145e-14 1.18941e-14 0
rhumerus -18.7472 20.1152 -68.8706
rradius 84.683 0 0
rwrist 2.78515 0 0
rhand 19.4153 -7.04609 0
rfingers 7.12502 0 0
rthumb 43.9045 -750.148 0
341
root 8.24361 16.0203 -20.6662 11.362 25.8351 5.1901
lfemur -11.413 19.4782 -11.3233
ltibia 41.9898 0 0
lfoot 1.91782 23.5778 0
ltoes -29.2874 0 0
rfemur -47.1835 -13.1025 6.90812
rtibia 55.4207 0 0
rfoot 3.33865 -19.1187 0
rtoes 9.61707 0 0
lowerback -0.0811387 -1.86954 -2.05172
upperback 1.95097 -2.44963 -0.228201
thorax 2.12518 -1.25573 0.85446
lowerneck -5.2339 -9.00049 -0.46361
upperneck -2.76515 -11.9439 6.61877
head 0.47607 -5.93736 1.87046
lclavicle -2.92354e-14 1.18704e-14 0
lhumerus -48.0934 -36.3524 109.924
lradius 58.0697 0 0
lwrist 19.0789 0 0
lhand 6.60927 12.4627 0
lfingers 7.12502 0 0
lthumb 31.8972 39.6271 0
rclavicle -2.92354e-14 1.18704e-14 0
rhumerus -19.6186 19.5133 -69.8285
rradius 84.3119 0 0
rwrist 2.77967 0 0
rhand 17.1671 -8.3051 0
rfingers 7.12502 0 0
rthumb 41.7544 -751.69 0
342
root 8.17302 16.043 -20.5085 11.1482 24.3048 4.74659
lfemur -11.7009 19.3489 -10.7896
ltibia 43.5279 0 0
lfoot 1.99408 21.9532 0
ltoes -26.966 0 0
rfemur -46.5167 -13.2644 8.07123
rtibia 54.9272 0 0
rfoot 2.3268 -18.0368 0
rtoes 9.59296 0 0
lowerback 0.0428071 -1.75937 -1.91813
upperback 1.95441 -2.30515 -0.125317
thorax 2.0546 -1.18221 0.888038
lowerneck -5.35553 -8.75118 -0.434638
upperneck -2.56847 -11.6222 6.48697
head 0.541302 -5.77289 1.82766
lclavicle -2.76844e-14 1.18418e-14 0
lhumerus -47.911 -35.659 109.565
lradius 58.0309 0 0
lwrist 18.9102 0 0
lhand 5.96599 12.2551 0
lfingers 7.12502 0 0
lthumb 31.2818 39.5147 0
rclavicle -2.76844e-14 1.18418e-14 0
rhumerus -20.6752 18.7836 -70.99
rradius 83.862 0 0
rwrist 2.77302 0 0
rhand 14.4412 -9.83169 0
rfingers 7.12502 0 0
rthumb 39.1474 -753.56 0
343
root 8.09196 16.0692 -20.3274 10.9027 22.5476 4.23729
lfemur -12.0315 19.2004 -10.1767
ltibia 45.2942 0 0
lfoot 2.08166 20.0876 0
ltoes -24.3003 0 0
rfemur -45.751 -13.4504 9.40684
rtibia 54.3606 0 0
rfoot 1.16487 -16.7944 0
rtoes 9.56528 0 0
lowerback 0.185136 -1.63286 -1.76474
upperback 1.95837 -2.13924 -0.00717423
thorax 1.97355 -1.09778 0.926597
lowerneck -5.4952 -8.46489 -0.401368
upperneck -2.34262 -11.2527 6.33562
head 0.616209 -5.58402 1.77852
lclavicle -2.59034e-14 1.18089e-14 0
lhumerus -47.7016 -34.8628 109.154
lradius 57.9863 0 0
lwrist 18.7164 0 0
lhand 5.22731 12.0166 0
lfingers 7.12502 0 0
lthumb 30.5752 39.3856 0
rclavicle -2.59034e-14 1.18089e-14 0
rhumerus -21.8885 17.9456 -72.3237
rradius 83.3454 0 0
rwrist 2.76538 0 0
rhand 11.3109 -11.5847 0
rfingers 7.12502 0 0
rthumb 36.1536 -755.707 0
344
root 8.00234 16.0981 -20.1272 10.6312 20.6047 3.67418
lfemur -12.3971 19.0362 -9.49905
ltibia 47.2471 0 0
lfoot 2.17849 18.0248 0
ltoes -21.3529 0 0
rfemur -44.9043 -13.656 10.8836
rtibia 53.7341 0 0
rfoot -0.119841 -15.4208 0
rtoes 9.53466 0 0
lowerback 0.342505 -1.49297 -1.59514
upperback 1.96275 -1.9558 0.123453
thorax 1.88394 -1.00443 0.969231
lowerneck -5.64963 -8.14836 -0.364582
upperneck -2.0929 -10.8443 6.16829
head 0.699031 -5.37519 1.72418
lclavicle -2.39342e-14 1.17725e-14 0
lhumerus -47.4701 -33.9825 108.698
lradius 57.937 0 0
lwrist 18.5022 0 0
lhand 4.41056 11.7529 0
lfingers 7.12502 0 0
lthumb 29.7938 39.2429 0
rclavicle -2.39342e-14 1.17725e-14 0
rhumerus -23.23 17.019 -73.7984
rradius 82.7742 0 0
rwrist 2.75694 0 0
rhand 7.84984 -13.5229 0
rfingers 7.12502 0 0
rthumb 32.8435 -758.082 0
345
root 7.90605 16.1292 -19.912 10.3396 18.5173 3.0692
lfemur -12.7898 18.8598 -8.77104
ltibia 49.3452 0 0
lfoot 2.28252 15.8087 0
ltoes -18.1864 0 0
rfemur -43.9947 -13.8768 12.4701
rtibia 53.061 0 0
rfoot -1.50005 -13.9451 0
rtoes 9.50178 0 0
lowerback 0.511573 -1.34269 -1.41292
upperback 1.96745 -1.75871 0.263791
thorax 1.78766 -0.904136 1.01503
lowerneck -5.81554 -7.80829 -0.325062
upperneck -1.82462 -10.4054 5.98851
head 0.788011 -5.15084 1.6658
lclavicle -2.18186e-14 1.17334e-14 0
lhumerus -47.2213 -33.0367 108.209
lradius 57.8841 0 0
lwrist 18.2721 0 0
lhand 3.53309 11.4697 0
lfingers 7.12502 0 0
lthumb 28.9544 39.0896 0
rclavicle -2.18186e-14 1.17334e-14 0
rhumerus -24.6713 16.0235 -75.3826
rradius 82.1606 0 0
rwrist 2.74787 0 0
rhand 4.1315 -15.6053 0
rfingers 7.12502 0 0
rthumb 29.2874 -760.632 0
346
root 7.805 16.1618 -19.6863 10.0336 16.3268 2.43432
lfemur -13.202 18.6746 -8.00705
ltibia 51.547 0 0
lfoot 2.39169 13.4831 0
ltoes -14.8634 0 0
rfemur -43.0402 -14.1086 14.1351
rtibia 52.3546 0 0
rfoot -2.94848 -12.3964 0
rtoes 9.46726 0 0
lowerback 0.688996 -1.18499 -1.22171
upperback 1.97238 -1.55189 0.411065
thorax 1.68663 -0.798888 1.0631
lowerneck -5.98965 -7.45141 -0.283588
upperneck -1.54308 -9.94491 5.79984
head 0.881388 -4.91539 1.60453
lclavicle -1.95985e-14 1.16924e-14 0
lhumerus -46.9603 -32.0441 107.696
lradius 57.8285 0 0
lwrist 18.0306 0 0
lhand 2.61226 11.1724 0
lfingers 7.12502 0 0
lthumb 28.0735 38.9286 0
rclavicle -1.95985e-14 1.16924e-14 0
rhumerus -26.1838 14.9789 -77.0452
rradius 81.5166 0 0
rwrist 2.73835 0 0
rhand 0.22939 -17.7905 0
rfingers 7.12502 0 0
rthumb 25.5554 -763.309 0
347
root 7.7011 16.1954 -19.4541 9.71888 14.0744 1.78151
lfemur -13.6258 18.4843 -7.22147
ltibia 53.811 0 0
lfoot 2.50394 11.0918 0
ltoes -11.4465 0 0
rfemur -42.0587 -14.3469 15.847
rtibia 51.6283 0 0
rfoot -4.43784 -10.804 0
rtoes 9.43178 0 0
lowerback 0.871433 -1.02282 -1.02508
upperback 1.97746 -1.33923 0.562501
thorax 1.58274 -0.690667 1.11252
lowerneck -6.16868 -7.08446 -0.240943
upperneck -1.25358 -9.47137 5.60585
head 0.977403 -4.6733 1.54154
lclavicle -1.73156e-14 1.16502e-14 0
lhumerus -46.6919 -31.0235 107.168
lradius 57.7714 0 0
lwrist 17.7823 0 0
lhand 1.66541 10.8667 0
lfingers 7.12502 0 0
lthumb 27.1677 38.7632 0
rclavicle -1.73156e-14 1.16502e-14 0
rhumerus -27.739 13.9047 -78.7548
rradius 80.8544 0 0
rwrist 2.72856 0 0
rhand -3.78299 -20.0375 0
rfingers 7.12502 0 0
rthumb 21.718 -766.062 0
348
root 7.59624 16.2292 -19.2199 9.4013 11.8014 1.12271
lfemur -14.0534 18.2921 -6.4287
ltibia 56.0957 0 0
lfoot 2.61723 8.67858 0
ltoes -7.9983 0 0
rfemur -41.0682 -14.5875 17.5747
rtibia 50.8953 0 0
rfoot -5.94084 -9.19697 0
rtoes 9.39596 0 0
lowerback 1.05554 -0.859174 -0.826662
upperback 1.98257 -1.12462 0.715323
thorax 1.4779 -0.581453 1.1624
lowerneck -6.34935 -6.71413 -0.197907
upperneck -0.961433 -8.9935 5.41008
head 1.0743 -4.42899 1.47796
lclavicle -1.50118e-14 1.16076e-14 0
lhumerus -46.421 -29.9936 106.636
lradius 57.7138 0 0
lwrist 17.5317 0 0
lhand 0.709888 10.5583 0
lfingers 7.12502 0 0
lthumb 26.2536 38.5962 0
rclavicle -1.50118e-14 1.16076e-14 0
rhumerus -29.3085 12.8207 -80.48
rradius 80.1861 0 0
rwrist 2.71868 0 0
rhand -7.83211 -22.3051 0
rfingers 7.12502 0 0
rthumb 17.8455 -768.839 0
349
root 7.49234 16.2628 -18.9877 9.08661 9.54896 0.469896
lfemur -14.4772 18.1018 -5.64312
ltibia 58.3597 0 0
lfoot 2.72948 6.28725 0
ltoes -4.58141 0 0
rfemur -40.0867 -14.8258 19.2867
rtibia 50.169 0 0
rfoot -7.4302 -7.60454 0
rtoes 9.36048 0 0
lowerback 1.23798 -0.69701 -0.630041
upperback 1.98765 -0.911951 0.866759
thorax 1.37401 -0.473232 1.21183
lowerneck -6.52838 -6.34718 -0.155262
upperneck -0.671937 -8.51996 5.21609
head 1.17031 -4.1869 1.41497
lclavicle -1.27289e-14 1.15654e-14 0
lhumerus -46.1526 -28.973 106.108
lradius 57.6567 0 0
lwrist 17.2834 0 0
lhand -0.236963 10.2526 0
lfingers 7.12502 0 0
lthumb 25.3478 38.4308 0
rclavicle -1.27289e-14 1.15654e-14 0
rhumerus -30.8637 11.7466 -82.1896
rradius 79.5239 0 0
rwrist 2.70889 0 0
rhand -11.8445 -24.5521 0
rfingers 7.12502 0 0
rthumb 14.0081 -771.592 0
350
root 7.39129 16.2954 -18.762 8.78056 7.35845 -0.16498
lfemur -14.8894 17.9166 -4.87913
ltibia 60.5615 0 0
lfoot 2.83865 3.96164 0
ltoes -1.25842 0 0
rfemur -39.1322 -15.0576 20.9516
rtibia 49.4626 0 0
rfoot -8.87863 -6.05588 0
rtoes 9.32596 0 0
lowerback 1.4154 -0.539303 -0.438823
upperback 1.99258 -0.70513 1.01403
thorax 1.27297 -0.367984 1.25989
lowerneck -6.70249 -5.9903 -0.113788
upperneck -0.390396 -8.05943 5.02742
head 1.26369 -3.95145 1.3537
lclavicle -1.05087e-14 1.15244e-14 0
lhumerus -45.8916 -27.9804 105.595
lradius 57.6011 0 0
lwrist 17.0419 0 0
lhand -1.15779 9.95535 0
lfingers 7.12502 0 0
lthumb 24.4669 38.2698 0
rclavicle -1.05087e-14 1.15244e-14 0
rhumerus -32.3762 10.7019 -83.8522
rradius 78.8799 0 0
rwrist 2.69937 0 0
rhand -15.7466 -26.7374 0
rfingers 7.12502 0 0
rthumb 10.2762 -774.269 0
351
root 7.295 16.3265 -18.5468 8.48893 5.2711 -0.769956
lfemur -15.2821 17.7402 -4.15112
ltibia 62.6596 0 0
lfoot 2.94268 1.74556 0
ltoes 1.90807 0 0
rfemur -38.2226 -15.2784 22.5382
rtibia 48.7895 0 0
rfoot -10.2588 -4.58014 0
rtoes 9.29308 0 0
lowerback 1.58447 -0.389023 -0.256611
upperback 1.99728 -0.50805 1.15437
thorax 1.1767 -0.267693 1.3057
lowerneck -6.8684 -5.65023 -0.0742679
upperneck -0.122115 -7.6206 4.84764
head 1.35267 -3.7271 1.29532
lclavicle -8.39313e-15 1.14853e-14 0
lhumerus -45.6428 -27.0346 105.106
lradius 57.5482 0 0
lwrist 16.8118 0 0
lhand -2.03526 9.67209 0
lfingers 7.12502 0 0
lthumb 23.6275 38.1165 0
rclavicle -8.39313e-15 1.14853e-14 0
rhumerus -33.8175 9.70647 -85.4364
rradius 78.2663 0 0
rwrist 2.6903 0 0
rhand -19.4649 -28.8197 0
rfingers 7.12502 0 0
rthumb 6.72005 -776.819 0
352
root 7.20538 16.3554 -18.3466 8.21748 3.32819 -1.33307
lfemur -15.6477 17.576 -3.47349
ltibia 64.6125 0 0
lfoot 3.03951 -0.317192 0
ltoes 4.85547 0 0
rfemur -37.3759 -15.484 24.0149
rtibia 48.163 0 0
rfoot -11.5436 -3.20652 0
rtoes 9.26246 0 0
lowerback 1.74184 -0.249141 -0.0870066
upperback 2.00166 -0.324606 1.285
thorax 1.08708 -0.174341 1.34833
lowerneck -7.02283 -5.3337 -0.0374822
upperneck 0.127603 -7.21212 4.68031
head 1.43549 -3.51827 1.24098
lclavicle -6.42392e-15 1.14489e-14 0
lhumerus -45.4113 -26.1543 104.65
lradius 57.4989 0 0
lwrist 16.5976 0 0
lhand -2.85201 9.40842 0
lfingers 7.12502 0 0
lthumb 22.8461 37.9738 0
rclavicle -6.42392e-15 1.14489e-14 0
rhumerus -35.159 8.7799 -86.9111
rradius 77.6951 0 0
rwrist 2.68186 0 0
rhand -22.926 -30.7579 0
rfingers 7.12502 0 0
rthumb 3.40995 -779.194 0
